<svg width="20" height="20" viewBox="0 0 20 20" fill="none" xmlns="http://www.w3.org/2000/svg">
<path d="M15 6.66666H15.8333C16.7174 6.66666 17.5652 7.01785 18.1904 7.64297C18.8155 8.26809 19.1667 9.11594 19.1667 9.99999C19.1667 10.884 18.8155 11.7319 18.1904 12.357C17.5652 12.9821 16.7174 13.3333 15.8333 13.3333H15" stroke="#969CB3" stroke-width="1.25" stroke-linecap="round" stroke-linejoin="round"/>
<path d="M1.66669 6.66666H15V14.1667C15 15.0507 14.6488 15.8986 14.0237 16.5237C13.3986 17.1488 12.5507 17.5 11.6667 17.5H5.00002C4.11597 17.5 3.26812 17.1488 2.643 16.5237C2.01788 15.8986 1.66669 15.0507 1.66669 14.1667V6.66666Z" stroke="#969CB3" stroke-width="1.25" stroke-linecap="round" stroke-linejoin="round"/>
<path d="M5 0.833344V3.33334" stroke="#969CB3" stroke-width="1.25" stroke-linecap="round" stroke-linejoin="round"/>
<path d="M8.33331 0.833344V3.33334" stroke="#969CB3" stroke-width="1.25" stroke-linecap="round" stroke-linejoin="round"/>
<path d="M11.6667 0.833344V3.33334" stroke="#969CB3" stroke-width="1.25" stroke-linecap="round" stroke-linejoin="round"/>
</svg>
